<?xml version="1.0" encoding="utf-8"?>
<!-- Generator: Adobe Illustrator 16.0.0, SVG Export Plug-In . SVG Version: 6.00 Build 0)  -->
<!DOCTYPE svg PUBLIC "-//W3C//DTD SVG 1.0//EN" "http://www.w3.org/TR/2001/REC-SVG-20010904/DTD/svg10.dtd">
<svg version="1.0" id="Layer_1" xmlns="http://www.w3.org/2000/svg" xmlns:xlink="http://www.w3.org/1999/xlink" x="0px" y="0px"
	 width="800px" height="800px" viewBox="0 0 800 800" enable-background="new 0 0 800 800" xml:space="preserve">
<g>
	<path fill-rule="evenodd" clip-rule="evenodd" fill="#DD0209" d="M28.779,430.19c1.269-3.217,2.555-6.431,3.807-9.656
		c7.452-19.213,14.898-38.43,22.331-57.651c0.24-0.623,0.532-0.86,1.23-0.849c2.749,0.049,5.499,0.046,8.248,0.003
		c0.732-0.011,1.091,0.188,1.379,0.903c7.181,17.799,14.392,35.586,21.598,53.377c1.821,4.496,3.643,8.992,5.464,13.488
		c0.055,0.136,0.103,0.273,0.189,0.507c-0.344,0.02-0.624,0.051-0.906,0.051c-3.989,0.002-7.978-0.019-11.966,0.021
		c-0.708,0.008-1.042-0.184-1.313-0.861c-2.089-5.232-4.234-10.441-6.331-15.672c-0.226-0.563-0.479-0.768-1.101-0.766
		c-7.463,0.025-14.927,0.025-22.39,0c-0.631-0.004-0.869,0.194-1.057,0.781c-1.662,5.227-3.373,10.437-5.036,15.662
		c-0.206,0.647-0.486,0.863-1.187,0.857c-4.319-0.037-8.641-0.016-12.961-0.015C28.779,430.313,28.779,430.252,28.779,430.19z
		 M60.325,381.591c-2.515,6.812-4.925,13.363-7.357,19.906c-0.277,0.745,0.176,0.633,0.602,0.633c4.465,0,8.932-0.017,13.397,0.017
		c0.755,0.006,0.835-0.159,0.583-0.834c-1.455-3.889-2.872-7.793-4.299-11.692C62.303,387.03,61.362,384.438,60.325,381.591z"/>
	<path fill-rule="evenodd" clip-rule="evenodd" fill="#DD0209" d="M691.184,349.499c1.05,4.365,2.431,8.633,3.904,12.869
		c6.947,19.952,17.045,38.163,30.278,54.633c0.184,0.229,0.351,0.473,0.604,0.818c-1.801-0.08-3.459-0.264-5.115-0.501
		c-6.785-0.967-13.342-2.724-19.504-5.783c-6.776-3.366-12.628-7.876-15.969-14.817c-7.564-15.722-6.132-30.774,3.953-45.011
		c0.533-0.754,1.258-1.364,1.668-2.208C691.063,349.499,691.124,349.499,691.184,349.499z"/>
	<path fill-rule="evenodd" clip-rule="evenodd" fill="#DD030A" d="M760.453,449.957c-0.999-0.365-2.059-0.258-3.089-0.353
		c-6.608-0.603-12.976-1.982-18.843-5.274c-3.365-1.889-6.73-3.777-10.073-5.704c-3.265-1.882-6.534-3.753-9.926-5.407
		c-3.275-1.599-6.695-2.483-10.337-2.693c-2.737-0.16-5.48-0.421-8.125-1.243c-0.848-0.264-1.687-0.569-2.441-1.394
		c12.705,0,25.243,0,38.038,0c-3.317-3.357-6.421-6.581-9.519-9.957c1.12-0.189,2.148,0.018,3.169,0.116
		c5.675,0.546,11.233,1.561,16.388,4.154c2.292,1.154,4.32,2.645,5.848,4.748c0.425,0.585,0.794,1.202,1.095,1.976
		c-5.514-0.807-10.973-1.08-16.731-0.836c10.39,9.777,22.107,16.889,35.314,21.572c-0.146,0.238-0.504-0.004-0.614,0.295
		C767.225,449.957,763.839,449.957,760.453,449.957z"/>
	<path fill-rule="evenodd" clip-rule="evenodd" fill="#DD0209" d="M224.675,385.803c2.397-1.817,4.958-3.275,7.743-4.313
		c3.774-1.407,7.668-2.146,11.709-1.9c7.07,0.432,13.131,6.77,13.156,13.857c0.042,12.057,0.005,24.112,0.027,36.172
		c0.002,0.684-0.243,0.765-0.831,0.76c-3.989-0.022-7.978-0.033-11.967,0.007c-0.735,0.01-0.874-0.215-0.872-0.899
		c0.021-10.879,0.02-21.759,0.011-32.636c-0.003-2.915-1.816-5.193-4.529-5.771c-1.52-0.324-2.932,0.169-4.35,0.57
		c-3.192,0.901-6.128,2.34-8.833,4.264c-0.526,0.375-0.719,0.766-0.717,1.411c0.021,10.667,0.001,21.334,0.037,32.002
		c0.004,0.899-0.247,1.072-1.097,1.063c-3.927-0.05-7.856-0.036-11.784-0.009c-0.608,0.004-0.818-0.116-0.817-0.779
		c0.02-15.894,0.018-31.79,0.004-47.684c0-0.545,0.13-0.783,0.7-0.911c2.405-0.537,4.817-0.865,7.27-0.389
		c2.688,0.521,4.47,2.005,4.994,4.792C224.551,385.524,224.61,385.631,224.675,385.803z"/>
	<path fill-rule="evenodd" clip-rule="evenodd" fill="#DD0209" d="M353.594,430.463c-3.087-0.188-6.117,0.327-9.096-0.295
		c-1.953-0.407-3.399-1.555-3.829-3.64c-0.137-0.658-0.392-0.327-0.65-0.14c-3.164,2.292-6.673,3.762-10.547,4.25
		c-4.975,0.627-9.799,0.358-13.937-2.964c-3.679-2.952-5.588-6.807-5.699-11.529c-0.053-2.216,0.112-4.407,0.824-6.527
		c1.365-4.063,4.302-6.595,8.1-8.277c3.719-1.647,7.667-2.309,11.676-2.688c2.439-0.23,4.888-0.295,7.335-0.228
		c0.711,0.02,0.864-0.226,0.867-0.873c0.016-4.144-2.465-7.046-6.783-7.547c-3.604-0.417-7.183-0.065-10.607,1.253
		c-1.272,0.49-2.469,1.142-3.4,2.177c-0.265,0.295-0.413,0.344-0.655-0.032c-1.533-2.388-3.071-4.771-4.642-7.134
		c-0.308-0.464-0.027-0.642,0.242-0.878c1.563-1.362,3.331-2.405,5.244-3.172c7.218-2.892,14.686-3.778,22.279-2.05
		c7.616,1.734,11.112,7.515,11.783,14.093c0.299,2.924,0.124,5.859,0.138,8.788c0.033,6.588-0.031,13.177,0.07,19.763
		C352.346,425.36,352.522,427.937,353.594,430.463z M339.186,412.997c0-1.39-0.031-2.78,0.014-4.167
		c0.021-0.614-0.145-0.821-0.781-0.855c-2.267-0.119-4.531-0.1-6.786,0.135c-2.075,0.217-4.124,0.588-5.988,1.61
		c-1.323,0.726-2.311,1.743-2.679,3.253c-0.75,3.066,1.187,6.268,4.441,7.047c4.043,0.97,7.829,0.062,11.405-1.935
		c0.372-0.207,0.378-0.489,0.376-0.828C339.182,415.837,339.186,414.417,339.186,412.997z"/>
	<path fill-rule="evenodd" clip-rule="evenodd" fill="#DD0209" d="M203.755,430.396c-2.75,0-5.411,0.101-8.062-0.029
		c-2.715-0.134-4.28-1.575-5.051-4.328c-2.176,1.631-4.513,2.943-7.104,3.708c-4.606,1.358-9.26,1.778-13.877,0.099
		c-5.685-2.069-9.531-7.624-9.589-13.674c-0.027-2.895,0.241-5.734,1.604-8.359c1.863-3.594,4.993-5.64,8.654-7.004
		c4.379-1.633,8.958-2.162,13.589-2.35c1.388-0.056,2.78-0.074,4.169-0.032c0.671,0.021,0.796-0.237,0.802-0.835
		c0.035-3.93-2.25-6.869-6.12-7.458c-4.223-0.643-8.37-0.236-12.297,1.602c-0.881,0.413-1.696,0.937-2.345,1.67
		c-0.289,0.325-0.435,0.388-0.704-0.034c-1.513-2.365-3.033-4.723-4.599-7.052c-0.341-0.506-0.054-0.693,0.241-0.945
		c2.044-1.755,4.399-2.962,6.928-3.825c6.495-2.217,13.152-2.878,19.897-1.561c7.104,1.387,11.732,6.718,12.436,13.934
		c0.114,1.176,0.164,2.349,0.164,3.528c-0.004,7.947-0.004,15.896-0.002,23.844c0.001,2.268,0.177,4.524,0.531,6.768
		C203.144,428.837,203.339,429.588,203.755,430.396z M189.453,412.94c0-1.389-0.023-2.777,0.013-4.166
		c0.015-0.556-0.113-0.762-0.722-0.795c-2.297-0.127-4.59-0.105-6.873,0.134c-2.073,0.217-4.123,0.587-5.981,1.616
		c-1.256,0.694-2.221,1.643-2.615,3.08c-0.857,3.128,1.049,6.407,4.387,7.209c4.038,0.971,7.823,0.056,11.405-1.913
		c0.371-0.204,0.393-0.473,0.392-0.818C189.449,415.838,189.453,414.389,189.453,412.94z"/>
	<path fill-rule="evenodd" clip-rule="evenodd" fill="#DD030A" d="M426.703,430.858c-1.059,0-2.117-0.05-3.171,0.017
		c-0.69,0.044-1-0.199-1.25-0.83c-2.158-5.468-4.363-10.916-6.516-16.384c-0.241-0.618-0.552-0.787-1.182-0.786
		c-9.673,0.019-19.343,0.022-29.014-0.002c-0.69-0.004-0.98,0.222-1.23,0.854c-2.143,5.407-4.345,10.791-6.48,16.199
		c-0.293,0.741-0.649,0.979-1.439,0.954c-2.084-0.064-4.171-0.048-6.256-0.009c-0.745,0.014-0.924-0.092-0.604-0.866
		c4.557-11.029,9.085-22.071,13.617-33.11c4.213-10.259,8.429-20.516,12.621-30.782c0.254-0.621,0.557-0.856,1.247-0.836
		c1.902,0.056,3.809,0.049,5.71,0.003c0.672-0.017,0.985,0.178,1.253,0.822c4.551,11.033,9.137,22.051,13.71,33.074
		c4.25,10.244,8.494,20.49,12.741,30.735c0.392,0.946,0.39,0.946-0.676,0.946C428.76,430.858,427.731,430.858,426.703,430.858z
		 M400.167,374.532c-0.15,0.326-0.216,0.453-0.27,0.583c-4.22,10.349-8.43,20.699-12.674,31.039
		c-0.328,0.799,0.035,0.753,0.597,0.753c8.127-0.007,16.253-0.019,24.379,0.013c0.87,0.003,0.811-0.246,0.549-0.893
		c-2.02-4.999-4.014-10.009-6.013-15.017C404.572,385.587,402.412,380.161,400.167,374.532z"/>
	<path fill-rule="evenodd" clip-rule="evenodd" fill="#DD0209" d="M83.656,381.209c4.288,0,8.577,0.012,12.866-0.013
		c0.63-0.003,0.638,0.458,0.777,0.816c2.068,5.305,4.123,10.615,6.183,15.924c1.809,4.662,3.619,9.324,5.43,13.985
		c0.075,0.196,0.157,0.389,0.296,0.725c0.96-2.555,1.877-4.986,2.788-7.422c2.904-7.759,5.814-15.516,8.689-23.286
		c0.221-0.594,0.496-0.749,1.097-0.744c4.049,0.027,8.098,0.029,12.146,0.001c0.712-0.005,0.892,0.082,0.573,0.819
		c-6.866,15.906-13.709,31.821-20.562,47.734c-0.123,0.284-0.17,0.636-0.645,0.626c-1.781-0.043-3.568,0.027-5.343-0.095
		c-1.591-0.111-2.792-1.054-3.797-2.242c-1.222-1.446-2.087-3.106-2.784-4.845c-5.541-13.817-11.559-27.43-17.45-41.098
		C83.807,381.828,83.605,381.578,83.656,381.209z"/>
	<path fill-rule="evenodd" clip-rule="evenodd" fill="#DD0209" d="M303.636,394.23c-2.715-2.139-5.612-3.516-8.86-4.017
		c-3.666-0.565-7.299-0.593-10.61,1.465c-3.354,2.084-5.138,5.286-6.117,8.972c-0.973,3.66-1.402,7.363-0.117,11.055
		c1.979,5.689,7.592,9.3,13.583,8.954c4.174-0.241,8.007-1.362,11.461-3.718c0.426-0.29,0.533-0.137,0.673,0.245
		c1.03,2.83,2.058,5.663,3.128,8.479c0.185,0.483-0.012,0.629-0.356,0.824c-4.469,2.537-9.256,4.095-14.368,4.581
		c-4.082,0.389-8.13,0.309-12.091-1.002c-9.428-3.114-15.877-11.859-16.023-21.798c-0.073-4.966,0.446-9.836,2.514-14.418
		c3.604-7.988,9.849-12.567,18.441-13.883c5.455-0.835,10.835-0.296,16.04,1.627c1.135,0.419,2.196,0.989,3.201,1.665
		c0.332,0.223,0.473,0.476,0.432,0.899C304.247,387.461,303.952,390.763,303.636,394.23z"/>
	<path fill-rule="evenodd" clip-rule="evenodd" fill="#DD030A" d="M610.226,409.037c-5.833,0-11.666,0.015-17.496-0.021
		c-0.777-0.004-0.952,0.206-0.901,0.957c0.617,8.995,8.077,16.036,17.087,16.064c5.02,0.015,9.736-1.216,14.153-3.572
		c0.647-0.347,0.89-0.258,1.157,0.39c0.552,1.337,1.155,2.653,1.779,3.956c0.226,0.466,0.234,0.688-0.292,0.951
		c-6.153,3.043-12.641,4.576-19.51,4.22c-10.654-0.553-20.144-9.129-21.808-19.729c-0.938-5.978-0.419-11.852,2.284-17.324
		c4.211-8.529,11.282-12.643,20.712-12.619c10.274,0.026,18.174,6.697,20.501,17.076c0.653,2.91,0.771,5.855,0.774,8.821
		c0,0.669-0.174,0.85-0.856,0.847C621.949,409.022,616.086,409.037,610.226,409.037z M606.423,404.123
		c4.619,0,9.238-0.013,13.854,0.015c0.634,0.004,0.818-0.145,0.773-0.799c-0.112-1.571-0.349-3.118-0.803-4.623
		c-3.616-12.065-16.039-13.049-22.866-6.726c-3.165,2.932-4.815,6.643-5.402,10.867c-0.174,1.263-0.16,1.266,1.13,1.266
		C597.548,404.123,601.984,404.123,606.423,404.123z"/>
	<path fill-rule="evenodd" clip-rule="evenodd" fill="#DD030A" d="M542.35,392.093c2.464-4.327,5.784-7.385,10.291-8.753
		c7.041-2.138,13.769-1.662,19.473,3.601c3.521,3.248,5.331,7.377,5.356,12.165c0.063,10.303,0.012,20.609,0.034,30.912
		c0.003,0.671-0.146,0.873-0.839,0.857c-2.115-0.049-4.233-0.052-6.346,0.002c-0.716,0.019-0.831-0.221-0.831-0.87
		c0.022-9.61,0.017-19.218,0.014-28.828c0-7.918-6.565-13.494-14.402-12.236c-6.678,1.071-11.255,5.63-12.342,12.303
		c-0.173,1.051-0.091,2.109-0.091,3.166c0.003,8.521-0.006,17.044,0.018,25.564c0.002,0.708-0.172,0.92-0.891,0.899
		c-1.935-0.052-3.869-0.049-5.802-0.001c-0.712,0.019-0.91-0.178-0.906-0.901c0.021-9.608,0.014-19.219,0.014-28.828
		c0-5.56,0.025-11.119-0.023-16.679c-0.008-0.909,0.257-1.106,1.104-1.065c1.511,0.071,3.022,0.037,4.532,0.01
		c0.492-0.009,0.661,0.128,0.715,0.643C541.698,386.656,542.02,389.253,542.35,392.093z"/>
	<path fill-rule="evenodd" clip-rule="evenodd" fill="#DD030A" d="M648.216,432.017c-4.698-0.088-10.344-1.216-15.795-3.349
		c-0.516-0.201-0.603-0.414-0.422-0.93c0.493-1.424,0.954-2.86,1.356-4.311c0.195-0.7,0.482-0.71,1.073-0.461
		c4.526,1.899,9.247,2.936,14.153,3.092c2.454,0.078,4.813-0.311,6.993-1.507c2.923-1.603,4.313-4.446,3.698-7.564
		c-0.301-1.525-1.146-2.706-2.372-3.629c-1.813-1.369-3.919-2.094-6.056-2.762c-3.677-1.151-7.468-1.961-10.98-3.614
		c-3.28-1.542-5.945-3.691-7.077-7.313c-1.981-6.334,0.773-12.343,7.046-15.375c3.752-1.813,7.743-2.223,11.834-1.935
		c4.423,0.312,8.704,1.283,12.847,2.875c0.613,0.236,0.848,0.449,0.605,1.162c-0.482,1.426-0.865,2.886-1.239,4.347
		c-0.132,0.526-0.295,0.588-0.785,0.375c-3.4-1.479-6.952-2.392-10.641-2.746c-2.514-0.242-5.014-0.249-7.422,0.653
		c-2.613,0.978-4.563,2.586-5.036,5.516c-0.402,2.512,0.471,4.509,2.523,5.983c1.868,1.343,4.03,2.016,6.2,2.67
		c3.517,1.063,7.122,1.851,10.474,3.42c3.794,1.773,6.655,4.375,7.506,8.676c1.33,6.714-1.755,12.34-8.224,15.06
		C655.566,431.573,652.514,432.058,648.216,432.017z"/>
	<path fill-rule="evenodd" clip-rule="evenodd" fill="#DD0209" d="M138.961,405.732c0-7.858,0.015-15.714-0.021-23.57
		c-0.004-0.818,0.218-0.985,0.997-0.977c3.807,0.042,7.614,0.032,11.422,0.006c0.625-0.003,0.886,0.081,0.886,0.816
		c-0.025,15.864-0.022,31.727-0.004,47.591c0.001,0.657-0.209,0.789-0.818,0.784c-3.867-0.026-7.735-0.037-11.603,0.006
		c-0.743,0.008-0.874-0.232-0.872-0.909C138.97,421.564,138.961,413.647,138.961,405.732z"/>
	<path fill-rule="evenodd" clip-rule="evenodd" fill="#DD0209" d="M498.973,391.797c0,9.456,0,18.911,0,28.367
		c0,3.276,2.353,5.584,5.619,5.522c1.394-0.026,2.774-0.174,4.123-0.521c0.58-0.15,0.77-0.013,0.848,0.596
		c0.214,1.646,0.504,3.279,0.774,4.916c0.054,0.314,0.031,0.518-0.343,0.583c-3.456,0.587-6.929,1.252-10.424,0.566
		c-4.985-0.979-8.497-5.477-8.479-10.548c0.027-8.066,0.029-16.133,0.033-24.199c0.006-11.298,0.014-22.598-0.02-33.896
		c-0.004-0.854,0.245-1.035,1.042-1.012c1.933,0.058,3.869,0.056,5.798,0c0.73-0.021,0.883,0.201,0.879,0.895
		c-0.021,9.577-0.014,19.153-0.014,28.73C498.863,391.797,498.92,391.797,498.973,391.797z"/>
	<path fill-rule="evenodd" clip-rule="evenodd" fill="#DD030A" d="M463.646,392.223c2.031-4.496,5.199-7.445,9.72-8.873
		c3.483-1.101,6.979-0.734,10.471-0.021c0.403,0.083,0.445,0.267,0.393,0.627c-0.254,1.701-0.493,3.404-0.705,5.111
		c-0.072,0.585-0.261,0.677-0.863,0.57c-2.71-0.483-5.444-0.877-8.172-0.147c-5.39,1.443-8.351,5.213-9.781,10.394
		c-0.509,1.846-0.622,3.744-0.622,5.653c0.006,8.096-0.009,16.191,0.02,24.289c0.003,0.815-0.183,1.084-1.036,1.055
		c-1.96-0.068-3.927-0.044-5.889-0.009c-0.598,0.01-0.831-0.099-0.831-0.775c0.02-15.314,0.02-30.631,0.002-45.948
		c-0.002-0.61,0.184-0.753,0.761-0.74c1.6,0.037,3.202,0.036,4.802,0c0.572-0.013,0.764,0.136,0.817,0.735
		c0.208,2.406,0.484,4.806,0.743,7.207C463.5,391.587,463.565,391.82,463.646,392.223z"/>
	<path fill-rule="evenodd" clip-rule="evenodd" fill="#DD030A" d="M443.808,407.082c0,7.611-0.009,15.223,0.017,22.835
		c0.003,0.734-0.169,0.98-0.938,0.96c-2.022-0.055-4.047-0.04-6.069-0.007c-0.589,0.01-0.761-0.156-0.761-0.762
		c0.018-15.313,0.018-30.625,0.003-45.938c0-0.582,0.138-0.775,0.746-0.765c2.054,0.038,4.109,0.059,6.16-0.007
		c0.794-0.025,0.855,0.298,0.853,0.94C443.802,391.921,443.808,399.502,443.808,407.082z"/>
	<path fill-rule="evenodd" clip-rule="evenodd" fill="#DD030A" d="M513.306,407.078c0-7.58,0.012-15.16-0.02-22.74
		c-0.002-0.758,0.188-0.958,0.94-0.937c2.022,0.056,4.048,0.045,6.07,0.003c0.622-0.013,0.748,0.198,0.746,0.77
		c-0.012,15.311-0.015,30.622,0.002,45.932c0,0.603-0.177,0.772-0.768,0.764c-2.054-0.034-4.11-0.048-6.16,0.006
		c-0.725,0.02-0.828-0.236-0.825-0.877C513.314,422.358,513.306,414.719,513.306,407.078z"/>
	<path fill-rule="evenodd" clip-rule="evenodd" fill="#DD0209" d="M153.229,367.467c0.015,4.239-3.356,7.655-7.604,7.703
		c-4.189,0.046-7.679-3.402-7.699-7.609c-0.021-4.283,3.396-7.726,7.665-7.724C149.864,359.838,153.214,363.185,153.229,367.467z"/>
	<path fill-rule="evenodd" clip-rule="evenodd" fill="#DD030A" d="M522.398,369.058c-0.018,2.887-2.311,5.139-5.217,5.125
		c-2.904-0.014-5.154-2.331-5.148-5.303c0.005-2.881,2.232-5.069,5.146-5.055C520.124,363.837,522.418,366.134,522.398,369.058z"/>
	<path fill-rule="evenodd" clip-rule="evenodd" fill="#DD030A" d="M445.171,368.997c0,2.899-2.27,5.181-5.157,5.186
		c-2.921,0.003-5.201-2.287-5.216-5.241c-0.014-2.883,2.2-5.108,5.093-5.117C442.845,363.814,445.171,366.094,445.171,368.997z"/>
</g>
</svg>
